<svg version="1.1" id="Layer_1" xmlns="http://www.w3.org/2000/svg" xmlns:xlink="http://www.w3.org/1999/xlink" x="0px" y="0px"
	 width="100%" viewBox="0 0 512 512" enable-background="new 0 0 512 512" xml:space="preserve">
<path fill="#000000" opacity="1.000000" stroke="none" 
	d="
M287.000000,513.000000 
	C191.356552,513.000000 96.213104,513.000000 1.034826,513.000000 
	C1.034826,342.398193 1.034826,171.796371 1.034826,1.097280 
	C171.560135,1.097280 342.120331,1.097280 512.840271,1.097280 
	C512.840271,171.666550 512.840271,342.333252 512.840271,513.000000 
	C437.796356,513.000000 362.648163,513.000000 287.000000,513.000000 
M256.041687,75.450577 
	C250.552856,77.298340 245.049515,79.104172 239.577698,81.001053 
	C215.018982,89.514702 191.963211,101.164261 170.057068,115.040604 
	C139.738922,134.245499 110.596138,154.950470 86.993126,182.474884 
	C75.733292,195.605408 65.973129,209.761658 58.050735,225.104584 
	C49.945244,240.802139 43.533615,257.234283 40.253204,274.642731 
	C37.791588,287.706024 37.099949,300.928406 40.504631,314.037323 
	C44.914989,331.018372 53.632427,345.247681 67.088066,356.649719 
	C79.974480,367.569458 94.887596,373.000275 111.565079,373.984253 
	C122.340256,374.619965 132.445389,371.400116 142.778000,368.917389 
	C154.987061,365.983795 164.631592,367.719330 171.437347,377.346863 
	C175.511261,383.109863 180.461533,386.481781 186.765411,388.233887 
	C195.859497,390.761536 205.201874,388.472290 206.252167,376.601288 
	C206.887054,369.425171 211.158432,363.489105 218.969238,361.547180 
	C226.614883,359.646362 234.005707,361.755127 241.020065,364.170227 
	C256.322876,369.438965 271.325684,368.618652 286.584076,364.158905 
	C299.837250,360.285278 310.922943,353.033356 321.370331,344.270569 
	C330.901581,336.276245 338.313446,326.727631 345.046692,316.378906 
	C351.765472,306.052460 358.732666,295.810272 366.474823,286.246674 
	C376.111115,274.343353 389.003632,266.590698 402.736786,259.930634 
	C423.997192,249.620209 432.501709,227.567795 422.147034,205.122910 
	C417.134552,194.257828 417.255157,182.917816 423.951843,172.520737 
	C431.219696,161.236816 435.715363,149.515427 434.129059,135.677338 
	C432.792236,124.015785 427.868073,114.383873 420.296906,105.795967 
	C405.366425,88.860550 386.015198,79.170700 365.104889,71.952080 
	C344.878998,64.969734 324.063110,64.388809 303.057251,66.068916 
	C297.233154,66.534729 291.428162,67.568718 285.691528,68.724541 
	C276.019928,70.673164 266.409943,72.927361 256.041687,75.450577 
M223.189697,453.994629 
	C226.111359,453.646912 229.130005,453.655243 231.938080,452.890472 
	C244.832947,449.378479 257.852081,446.188599 270.488525,441.889465 
	C297.834503,432.585846 323.341461,419.363617 347.785828,404.034393 
	C374.259247,387.432770 398.542084,368.135406 420.023773,345.404999 
	C424.056519,341.137848 428.048004,336.742249 431.416992,331.954468 
	C440.464630,319.096466 450.023682,306.484619 457.799866,292.872528 
	C469.199158,272.918213 476.254639,251.283615 479.165802,228.280823 
	C480.891876,214.642105 482.403900,200.995911 479.843384,187.500809 
	C474.769501,160.759186 463.279236,136.904694 445.170227,115.851639 
	C445.115295,116.901627 444.862946,117.614922 445.083130,118.123688 
	C449.386932,128.067963 449.652039,138.602402 448.864532,149.064362 
	C448.167999,158.316956 445.505737,167.270233 439.658051,174.743301 
	C433.314819,182.849609 432.287506,191.435364 436.324493,200.699539 
	C446.037140,222.988449 441.192413,247.946594 423.366394,263.710022 
	C416.736359,269.572906 407.838562,272.840240 400.073700,277.457306 
	C383.904572,287.071594 371.105255,300.256470 362.026672,316.546051 
	C352.347229,333.913757 339.842194,348.656372 324.439697,360.940277 
	C307.770905,374.234009 288.547913,381.572540 267.267395,382.913635 
	C256.086121,383.618256 245.223160,381.184540 234.517075,377.959229 
	C230.273758,376.680908 225.779846,376.234467 221.169083,375.365753 
	C220.918060,387.514496 215.520493,395.511566 206.327652,400.842072 
	C191.483383,409.449585 168.918365,399.934601 160.295151,387.898285 
	C158.823303,385.843842 156.338257,383.454895 154.117889,383.230194 
	C150.177216,382.831451 145.890610,383.370728 142.082626,384.574158 
	C126.266640,389.572418 110.265587,390.665680 94.243668,386.557831 
	C75.787575,381.825836 59.662640,372.870911 47.341934,357.882599 
	C46.678265,357.075195 45.675396,356.546661 44.830421,355.888306 
	C46.578560,362.252563 48.704182,368.297363 51.560616,373.974457 
	C59.887241,390.523346 70.812706,405.284363 84.969467,417.210846 
	C93.627800,424.505096 102.801582,431.745667 112.883469,436.683594 
	C139.266327,449.605469 167.590851,455.180267 196.979630,454.958435 
	C205.405762,454.894806 213.828125,454.333008 223.189697,453.994629 
z"/>
<path fill="#FFC84B" opacity="1.000000" stroke="none" 
	d="
M256.407867,75.251816 
	C266.409943,72.927361 276.019928,70.673164 285.691528,68.724541 
	C291.428162,67.568718 297.233154,66.534729 303.057251,66.068916 
	C324.063110,64.388809 344.878998,64.969734 365.104889,71.952080 
	C386.015198,79.170700 405.366425,88.860550 420.296906,105.795967 
	C427.868073,114.383873 432.792236,124.015785 434.129059,135.677338 
	C435.715363,149.515427 431.219696,161.236816 423.951843,172.520737 
	C417.255157,182.917816 417.134552,194.257828 422.147034,205.122910 
	C432.501709,227.567795 423.997192,249.620209 402.736786,259.930634 
	C389.003632,266.590698 376.111115,274.343353 366.474823,286.246674 
	C358.732666,295.810272 351.765472,306.052460 345.046692,316.378906 
	C338.313446,326.727631 330.901581,336.276245 321.370331,344.270569 
	C310.922943,353.033356 299.837250,360.285278 286.584076,364.158905 
	C271.325684,368.618652 256.322876,369.438965 241.020065,364.170227 
	C234.005707,361.755127 226.614883,359.646362 218.969238,361.547180 
	C211.158432,363.489105 206.887054,369.425171 206.252167,376.601288 
	C205.201874,388.472290 195.859497,390.761536 186.765411,388.233887 
	C180.461533,386.481781 175.511261,383.109863 171.437347,377.346863 
	C164.631592,367.719330 154.987061,365.983795 142.778000,368.917389 
	C132.445389,371.400116 122.340256,374.619965 111.565079,373.984253 
	C94.887596,373.000275 79.974480,367.569458 67.088066,356.649719 
	C53.632427,345.247681 44.914989,331.018372 40.504631,314.037323 
	C37.099949,300.928406 37.791588,287.706024 40.253204,274.642731 
	C43.533615,257.234283 49.945244,240.802139 58.050735,225.104584 
	C65.973129,209.761658 75.733292,195.605408 86.993126,182.474884 
	C110.596138,154.950470 139.738922,134.245499 170.057068,115.040604 
	C191.963211,101.164261 215.018982,89.514702 239.577698,81.001053 
	C245.049515,79.104172 250.552856,77.298340 256.407867,75.251816 
M292.566467,196.952301 
	C292.829712,196.360550 293.114532,195.777344 293.353058,195.175781 
	C299.299500,180.179550 296.011932,170.406967 284.074646,164.482819 
	C280.846802,162.880920 278.765198,163.412552 277.831390,166.706833 
	C276.653198,170.863190 275.582489,175.105911 275.072357,179.383774 
	C274.080536,187.701172 272.092926,192.110519 263.936798,194.557480 
	C258.234192,196.268372 250.779556,193.270630 246.960571,187.739090 
	C240.869080,178.915985 229.282623,175.523788 221.161743,181.217072 
	C217.595337,183.717361 214.905136,188.257950 213.217422,192.437592 
	C211.316620,197.144928 211.091187,202.511276 209.963074,207.552032 
	C208.024719,216.213043 201.705658,222.566483 194.556870,222.978104 
	C181.429169,223.733994 171.351151,229.347733 164.527802,240.828934 
	C160.981155,246.796616 161.495087,250.103043 167.442032,254.113907 
	C176.999512,260.559845 187.338440,262.211090 198.833176,261.216034 
	C211.915070,260.083588 224.083847,256.524475 235.239243,250.118301 
	C245.600693,244.168045 255.360153,237.136856 265.189423,230.300888 
	C277.197479,221.949661 286.298309,211.090469 292.566467,196.952301 
M110.998894,330.495911 
	C109.890678,325.662018 103.128372,319.970825 98.543159,320.013153 
	C95.282349,320.043243 90.638329,325.368561 91.156303,328.483704 
	C91.679657,331.631165 98.406097,337.592926 102.628967,337.788544 
	C106.869476,337.984955 109.657471,335.335388 110.998894,330.495911 
M380.938171,154.593414 
	C382.850220,157.243378 385.183167,159.945358 388.596832,157.915237 
	C391.098724,156.427383 394.938354,152.986023 394.496552,151.546036 
	C393.215118,147.369690 390.730804,143.029877 387.486572,140.134659 
	C384.086395,137.100296 379.901215,139.516418 377.889801,143.774460 
	C375.811981,148.173065 379.587769,150.610321 380.938171,154.593414 
M232.471436,307.001678 
	C238.623154,303.294769 238.951187,291.694244 232.748016,288.498657 
	C230.990158,287.593109 228.105087,287.782043 226.165039,288.550201 
	C222.055038,290.177460 221.786957,293.997925 221.963242,297.911713 
	C222.136612,301.760620 223.359085,305.052704 226.841965,306.845856 
	C228.149948,307.519257 230.058990,307.025238 232.471436,307.001678 
M139.011017,297.321625 
	C140.492325,300.918762 142.874481,304.050781 146.994141,302.779053 
	C149.351883,302.051178 152.438904,299.295929 152.691299,297.157593 
	C153.078384,293.878357 151.746048,290.148743 150.337875,286.966736 
	C148.514572,282.846680 143.290009,282.008484 139.753021,284.751984 
	C136.148911,287.547546 135.916214,291.120026 139.011017,297.321625 
M285.610901,271.002625 
	C287.008698,271.335266 288.483551,271.485291 289.789246,272.036224 
	C293.149994,273.454163 296.072327,272.287781 297.623962,269.619965 
	C298.783875,267.625580 299.539398,263.917145 298.462097,262.434998 
	C296.693359,260.001495 293.466766,258.340332 290.537872,257.105377 
	C286.258789,255.301147 281.653351,257.081116 280.179169,260.476685 
	C278.571747,264.179138 280.503571,268.552399 285.610901,271.002625 
M325.799652,146.039566 
	C324.445953,149.230820 322.991058,152.383682 321.762360,155.622360 
	C319.944855,160.413132 323.384155,162.569107 326.753998,164.153351 
	C330.118896,165.735306 333.275696,164.422089 334.872833,161.133362 
	C336.039185,158.731766 336.787628,155.922943 336.910431,153.258240 
	C337.239929,146.107162 333.622955,143.655746 325.799652,146.039566 
M145.000641,175.599915 
	C141.152039,180.275406 143.646133,189.769592 149.305161,191.985840 
	C153.621948,193.676422 158.874069,190.575073 158.879440,185.911484 
	C158.882492,183.276978 157.864075,180.584793 157.008835,178.017502 
	C155.217178,172.639252 150.021805,171.337082 145.000641,175.599915 
M196.070206,128.001953 
	C194.048859,130.257523 190.804474,132.311615 190.389313,134.831787 
	C190.051163,136.884506 192.602631,140.618118 194.770294,141.576675 
	C197.539078,142.801056 201.371307,142.652542 204.457565,141.906250 
	C210.377258,140.474792 211.669907,135.143219 207.963089,130.403900 
	C204.847809,126.420898 200.649521,128.581039 196.070206,128.001953 
M179.899277,328.360992 
	C177.164246,328.192169 173.635712,326.873474 171.861893,328.097565 
	C168.334641,330.531647 164.131134,333.195648 164.044662,338.487030 
	C164.035019,339.077118 164.322479,339.899139 164.761414,340.231262 
	C166.954620,341.890594 170.021408,345.233276 171.355118,344.660980 
	C175.431717,342.911743 179.365067,340.079285 182.257324,336.723053 
	C183.278793,335.537689 181.136108,331.625641 179.899277,328.360992 
M365.854736,204.003738 
	C364.619080,204.343277 363.336273,204.565979 362.155823,205.042343 
	C356.726135,207.233383 355.581573,213.150436 359.748810,217.261429 
	C362.506500,219.981934 368.112671,220.412704 372.731995,217.510849 
	C374.626221,216.320908 376.766174,213.629395 376.696289,211.696777 
	C376.613617,209.409760 374.667053,206.725082 372.762054,205.125397 
	C371.392761,203.975616 368.767365,204.321686 365.854736,204.003738 
M89.613998,268.922180 
	C92.523201,265.799713 92.199173,262.150726 89.625801,259.560059 
	C87.970139,257.893280 84.241844,256.565704 82.287590,257.308746 
	C79.173820,258.492645 76.319443,261.175476 74.174477,263.875244 
	C71.727051,266.955658 72.907036,270.230286 75.531281,273.070923 
	C78.154449,275.910370 81.071198,275.611420 83.895866,273.917999 
	C85.822159,272.763214 87.350243,270.944214 89.613998,268.922180 
M333.165314,109.998062 
	C339.410767,106.997879 340.941620,101.278618 336.610443,97.290192 
	C332.763824,93.747940 321.520264,95.417870 320.080048,100.834381 
	C319.671295,102.371788 319.658234,104.177238 320.023041,105.728180 
	C321.321381,111.247833 326.505402,112.152794 333.165314,109.998062 
M244.927307,130.489273 
	C246.645004,135.352020 250.947510,136.382950 254.462387,134.468109 
	C256.810455,133.188919 258.116882,129.014862 258.730347,125.907471 
	C259.091492,124.078232 257.618134,121.409210 256.184204,119.832291 
	C254.629379,118.122421 252.173920,116.293839 250.089096,116.267487 
	C248.006607,116.241180 245.550858,118.023010 243.870682,119.645775 
	C240.346634,123.049438 243.904129,126.480736 244.927307,130.489273 
M333.347656,270.845215 
	C334.598267,274.142090 335.384247,277.805389 340.029633,278.019379 
	C343.645508,278.185944 346.536835,277.177948 347.789948,273.519562 
	C349.392181,268.842041 347.791656,261.747162 344.890472,259.982056 
	C340.661499,257.409149 336.236603,258.407898 334.132294,262.931915 
	C333.158997,265.024353 333.367523,267.666534 333.347656,270.845215 
M281.908783,324.455353 
	C285.718170,332.534210 292.215759,330.405304 298.575104,324.771210 
	C302.430603,321.355408 300.413025,314.710144 295.458466,313.180634 
	C289.371674,311.301605 281.516937,317.281677 281.908783,324.455353 
z"/>
<path fill="#FFC84B" opacity="1.000000" stroke="none" 
	d="
M222.720963,453.997131 
	C213.828125,454.333008 205.405762,454.894806 196.979630,454.958435 
	C167.590851,455.180267 139.266327,449.605469 112.883469,436.683594 
	C102.801582,431.745667 93.627800,424.505096 84.969467,417.210846 
	C70.812706,405.284363 59.887241,390.523346 51.560616,373.974457 
	C48.704182,368.297363 46.578560,362.252563 44.830421,355.888306 
	C45.675396,356.546661 46.678265,357.075195 47.341934,357.882599 
	C59.662640,372.870911 75.787575,381.825836 94.243668,386.557831 
	C110.265587,390.665680 126.266640,389.572418 142.082626,384.574158 
	C145.890610,383.370728 150.177216,382.831451 154.117889,383.230194 
	C156.338257,383.454895 158.823303,385.843842 160.295151,387.898285 
	C168.918365,399.934601 191.483383,409.449585 206.327652,400.842072 
	C215.520493,395.511566 220.918060,387.514496 221.169083,375.365753 
	C225.779846,376.234467 230.273758,376.680908 234.517075,377.959229 
	C245.223160,381.184540 256.086121,383.618256 267.267395,382.913635 
	C288.547913,381.572540 307.770905,374.234009 324.439697,360.940277 
	C339.842194,348.656372 352.347229,333.913757 362.026672,316.546051 
	C371.105255,300.256470 383.904572,287.071594 400.073700,277.457306 
	C407.838562,272.840240 416.736359,269.572906 423.366394,263.710022 
	C441.192413,247.946594 446.037140,222.988449 436.324493,200.699539 
	C432.287506,191.435364 433.314819,182.849609 439.658051,174.743301 
	C445.505737,167.270233 448.167999,158.316956 448.864532,149.064362 
	C449.652039,138.602402 449.386932,128.067963 445.083130,118.123688 
	C444.862946,117.614922 445.115295,116.901627 445.170227,115.851639 
	C463.279236,136.904694 474.769501,160.759186 479.843384,187.500809 
	C482.403900,200.995911 480.891876,214.642105 479.165802,228.280823 
	C476.254639,251.283615 469.199158,272.918213 457.799866,292.872528 
	C450.023682,306.484619 440.464630,319.096466 431.416992,331.954468 
	C428.048004,336.742249 424.056519,341.137848 420.023773,345.404999 
	C398.542084,368.135406 374.259247,387.432770 347.785828,404.034393 
	C323.341461,419.363617 297.834503,432.585846 270.488525,441.889465 
	C257.852081,446.188599 244.832947,449.378479 231.938080,452.890472 
	C229.130005,453.655243 226.111359,453.646912 222.720963,453.997131 
z"/>
<path fill="#000000" opacity="1.000000" stroke="none" 
	d="
M292.320435,197.256943 
	C286.298309,211.090469 277.197479,221.949661 265.189423,230.300888 
	C255.360153,237.136856 245.600693,244.168045 235.239243,250.118301 
	C224.083847,256.524475 211.915070,260.083588 198.833176,261.216034 
	C187.338440,262.211090 176.999512,260.559845 167.442032,254.113907 
	C161.495087,250.103043 160.981155,246.796616 164.527802,240.828934 
	C171.351151,229.347733 181.429169,223.733994 194.556870,222.978104 
	C201.705658,222.566483 208.024719,216.213043 209.963074,207.552032 
	C211.091187,202.511276 211.316620,197.144928 213.217422,192.437592 
	C214.905136,188.257950 217.595337,183.717361 221.161743,181.217072 
	C229.282623,175.523788 240.869080,178.915985 246.960571,187.739090 
	C250.779556,193.270630 258.234192,196.268372 263.936798,194.557480 
	C272.092926,192.110519 274.080536,187.701172 275.072357,179.383774 
	C275.582489,175.105911 276.653198,170.863190 277.831390,166.706833 
	C278.765198,163.412552 280.846802,162.880920 284.074646,164.482819 
	C296.011932,170.406967 299.299500,180.179550 293.353058,195.175781 
	C293.114532,195.777344 292.829712,196.360550 292.320435,197.256943 
z"/>
<path fill="#000000" opacity="1.000000" stroke="none" 
	d="
M110.997131,330.893890 
	C109.657471,335.335388 106.869476,337.984955 102.628967,337.788544 
	C98.406097,337.592926 91.679657,331.631165 91.156303,328.483704 
	C90.638329,325.368561 95.282349,320.043243 98.543159,320.013153 
	C103.128372,319.970825 109.890678,325.662018 110.997131,330.893890 
z"/>
<path fill="#000000" opacity="1.000000" stroke="none" 
	d="
M380.707764,154.289459 
	C379.587769,150.610321 375.811981,148.173065 377.889801,143.774460 
	C379.901215,139.516418 384.086395,137.100296 387.486572,140.134659 
	C390.730804,143.029877 393.215118,147.369690 394.496552,151.546036 
	C394.938354,152.986023 391.098724,156.427383 388.596832,157.915237 
	C385.183167,159.945358 382.850220,157.243378 380.707764,154.289459 
z"/>
<path fill="#000000" opacity="1.000000" stroke="none" 
	d="
M232.082718,307.032593 
	C230.058990,307.025238 228.149948,307.519257 226.841965,306.845856 
	C223.359085,305.052704 222.136612,301.760620 221.963242,297.911713 
	C221.786957,293.997925 222.055038,290.177460 226.165039,288.550201 
	C228.105087,287.782043 230.990158,287.593109 232.748016,288.498657 
	C238.951187,291.694244 238.623154,303.294769 232.082718,307.032593 
z"/>
<path fill="#000000" opacity="1.000000" stroke="none" 
	d="
M138.998642,296.922272 
	C135.916214,291.120026 136.148911,287.547546 139.753021,284.751984 
	C143.290009,282.008484 148.514572,282.846680 150.337875,286.966736 
	C151.746048,290.148743 153.078384,293.878357 152.691299,297.157593 
	C152.438904,299.295929 149.351883,302.051178 146.994141,302.779053 
	C142.874481,304.050781 140.492325,300.918762 138.998642,296.922272 
z"/>
<path fill="#000000" opacity="1.000000" stroke="none" 
	d="
M285.209015,270.978058 
	C280.503571,268.552399 278.571747,264.179138 280.179169,260.476685 
	C281.653351,257.081116 286.258789,255.301147 290.537872,257.105377 
	C293.466766,258.340332 296.693359,260.001495 298.462097,262.434998 
	C299.539398,263.917145 298.783875,267.625580 297.623962,269.619965 
	C296.072327,272.287781 293.149994,273.454163 289.789246,272.036224 
	C288.483551,271.485291 287.008698,271.335266 285.209015,270.978058 
z"/>
<path fill="#000000" opacity="1.000000" stroke="none" 
	d="
M326.201141,145.962402 
	C333.622955,143.655746 337.239929,146.107162 336.910431,153.258240 
	C336.787628,155.922943 336.039185,158.731766 334.872833,161.133362 
	C333.275696,164.422089 330.118896,165.735306 326.753998,164.153351 
	C323.384155,162.569107 319.944855,160.413132 321.762360,155.622360 
	C322.991058,152.383682 324.445953,149.230820 326.201141,145.962402 
z"/>
<path fill="#000000" opacity="1.000000" stroke="none" 
	d="
M145.283859,175.311768 
	C150.021805,171.337082 155.217178,172.639252 157.008835,178.017502 
	C157.864075,180.584793 158.882492,183.276978 158.879440,185.911484 
	C158.874069,190.575073 153.621948,193.676422 149.305161,191.985840 
	C143.646133,189.769592 141.152039,180.275406 145.283859,175.311768 
z"/>
<path fill="#000000" opacity="1.000000" stroke="none" 
	d="
M196.502838,128.000977 
	C200.649521,128.581039 204.847809,126.420898 207.963089,130.403900 
	C211.669907,135.143219 210.377258,140.474792 204.457565,141.906250 
	C201.371307,142.652542 197.539078,142.801056 194.770294,141.576675 
	C192.602631,140.618118 190.051163,136.884506 190.389313,134.831787 
	C190.804474,132.311615 194.048859,130.257523 196.502838,128.000977 
z"/>
<path fill="#000000" opacity="1.000000" stroke="none" 
	d="
M180.168671,328.659729 
	C181.136108,331.625641 183.278793,335.537689 182.257324,336.723053 
	C179.365067,340.079285 175.431717,342.911743 171.355118,344.660980 
	C170.021408,345.233276 166.954620,341.890594 164.761414,340.231262 
	C164.322479,339.899139 164.035019,339.077118 164.044662,338.487030 
	C164.131134,333.195648 168.334641,330.531647 171.861893,328.097565 
	C173.635712,326.873474 177.164246,328.192169 180.168671,328.659729 
z"/>
<path fill="#000000" opacity="1.000000" stroke="none" 
	d="
M366.278534,204.002106 
	C368.767365,204.321686 371.392761,203.975616 372.762054,205.125397 
	C374.667053,206.725082 376.613617,209.409760 376.696289,211.696777 
	C376.766174,213.629395 374.626221,216.320908 372.731995,217.510849 
	C368.112671,220.412704 362.506500,219.981934 359.748810,217.261429 
	C355.581573,213.150436 356.726135,207.233383 362.155823,205.042343 
	C363.336273,204.565979 364.619080,204.343277 366.278534,204.002106 
z"/>
<path fill="#000000" opacity="1.000000" stroke="none" 
	d="
M89.335190,269.172180 
	C87.350243,270.944214 85.822159,272.763214 83.895866,273.917999 
	C81.071198,275.611420 78.154449,275.910370 75.531281,273.070923 
	C72.907036,270.230286 71.727051,266.955658 74.174477,263.875244 
	C76.319443,261.175476 79.173820,258.492645 82.287590,257.308746 
	C84.241844,256.565704 87.970139,257.893280 89.625801,259.560059 
	C92.199173,262.150726 92.523201,265.799713 89.335190,269.172180 
z"/>
<path fill="#000000" opacity="1.000000" stroke="none" 
	d="
M332.751587,110.003845 
	C326.505402,112.152794 321.321381,111.247833 320.023041,105.728180 
	C319.658234,104.177238 319.671295,102.371788 320.080048,100.834381 
	C321.520264,95.417870 332.763824,93.747940 336.610443,97.290192 
	C340.941620,101.278618 339.410767,106.997879 332.751587,110.003845 
z"/>
<path fill="#000000" opacity="1.000000" stroke="none" 
	d="
M244.663483,130.199463 
	C243.904129,126.480736 240.346634,123.049438 243.870682,119.645775 
	C245.550858,118.023010 248.006607,116.241180 250.089096,116.267487 
	C252.173920,116.293839 254.629379,118.122421 256.184204,119.832291 
	C257.618134,121.409210 259.091492,124.078232 258.730347,125.907471 
	C258.116882,129.014862 256.810455,133.188919 254.462387,134.468109 
	C250.947510,136.382950 246.645004,135.352020 244.663483,130.199463 
z"/>
<path fill="#000000" opacity="1.000000" stroke="none" 
	d="
M333.193939,270.452332 
	C333.367523,267.666534 333.158997,265.024353 334.132294,262.931915 
	C336.236603,258.407898 340.661499,257.409149 344.890472,259.982056 
	C347.791656,261.747162 349.392181,268.842041 347.789948,273.519562 
	C346.536835,277.177948 343.645508,278.185944 340.029633,278.019379 
	C335.384247,277.805389 334.598267,274.142090 333.193939,270.452332 
z"/>
<path fill="#000000" opacity="1.000000" stroke="none" 
	d="
M281.646484,324.175598 
	C281.516937,317.281677 289.371674,311.301605 295.458466,313.180634 
	C300.413025,314.710144 302.430603,321.355408 298.575104,324.771210 
	C292.215759,330.405304 285.718170,332.534210 281.646484,324.175598 
z"/>
</svg>